<?xml version="1.0" encoding="UTF-8" standalone="no"?>
<!-- Created with Inkscape (http://www.inkscape.org/) -->
<svg
   xmlns:dc="http://purl.org/dc/elements/1.1/"
   xmlns:cc="http://web.resource.org/cc/"
   xmlns:rdf="http://www.w3.org/1999/02/22-rdf-syntax-ns#"
   xmlns:svg="http://www.w3.org/2000/svg"
   xmlns="http://www.w3.org/2000/svg"
   xmlns:sodipodi="http://sodipodi.sourceforge.net/DTD/sodipodi-0.dtd"
   xmlns:inkscape="http://www.inkscape.org/namespaces/inkscape"
   id="svg2"
   sodipodi:version="0.32"
   inkscape:version="0.45.1"
   width="499.99994"
   height="154.3822"
   version="1.0"
   sodipodi:docbase="/home/butze/Desktop"
   sodipodi:docname="veolia-energy-logo.svg"
   inkscape:output_extension="org.inkscape.output.svg.inkscape">
  <metadata
     id="metadata7">
    <rdf:RDF>
      <cc:Work
         rdf:about="">
        <dc:format>image/svg+xml</dc:format>
        <dc:type
           rdf:resource="http://purl.org/dc/dcmitype/StillImage" />
      </cc:Work>
    </rdf:RDF>
  </metadata>
  <defs
     id="defs5" />
  <sodipodi:namedview
     inkscape:window-height="752"
     inkscape:window-width="1280"
     inkscape:pageshadow="2"
     inkscape:pageopacity="0.0"
     guidetolerance="10.0"
     gridtolerance="10.0"
     objecttolerance="10.0"
     borderopacity="1.0"
     bordercolor="#666666"
     pagecolor="#ffffff"
     id="base"
     inkscape:zoom="0.63848631"
     inkscape:cx="621"
     inkscape:cy="400.07795"
     inkscape:window-x="0"
     inkscape:window-y="25"
     inkscape:current-layer="svg2" />
  <g
     id="g4105"
     transform="matrix(0.4063574,0,0,0.4063574,-2.1837521,-3.725016)">
    <path
       sodipodi:nodetypes="csssssssssccsssssscccssssssssssccccssssssssccssssssssccsssscccsssssccsssscccccscccccccccscccccccscccsssssccccccccccccccccccsscccsscccccsccccsscccc"
       id="path2161"
       d="M 143.69359,310.93971 C 51.76517,302.78254 -11.855108,214.69693 9.5292634,125.18217 C 23.184002,68.023569 68.512409,24.170186 126.5,12.017757 C 139.35352,9.3240513 160.50727,8.3680758 173.5127,9.8931694 C 208.42362,13.987031 239.1252,28.944477 264,53.977516 C 284.91864,75.029224 298.66775,100.84999 305.14679,131.25097 C 308.11481,145.17751 308.33774,172.89632 305.59516,187 C 299.44549,218.62456 285.97783,244.09765 263.5398,266.54459 C 236.75047,293.34456 206.06198,307.59605 167.86033,310.97736 C 161.61215,311.53041 155.6,311.924 154.5,311.85201 C 153.4,311.78003 148.53712,311.36949 143.69359,310.93971 z M 149.39081,239.32772 C 138.12076,226.04268 128.3038,208.81361 124.48255,195.61294 C 122.10127,187.38672 122.83192,172.69004 126.02091,164.66955 C 129.08223,156.97019 135.65526,149.79389 142.79764,146.35308 C 147.51746,144.07932 149.87843,143.5989 156.5,143.56487 C 163.25571,143.53015 165.37767,143.95305 170.14286,146.28382 C 187.1021,154.57898 194.45866,175.12461 188.30229,197 C 185.10793,208.35048 175.36888,225.29629 164.27459,238.80787 L 158.77971,245.5 L 162.63986,245.83595 C 171.92593,246.64412 191.84617,241.60466 204.5,235.24608 C 225.01882,224.93533 242.8191,207.27362 252.90036,187.22251 C 261.19049,170.73387 264.60735,153.91849 263.69546,134.09657 C 262.55341,109.27164 254.6466,89.05288 238.56009,69.822136 C 226.12372,54.954975 204.49351,41.045965 186.00269,36.025825 C 161.55262,29.387784 134.55712,31.558114 112.38117,41.9447 C 90.653678,52.121236 73.519222,68.307732 62.647804,88.926575 C 53.137359,106.96418 49.324919,124.10948 50.308949,144.41687 C 51.266294,164.17359 56.984042,182.04318 67.484469,198.09528 C 74.578601,208.94015 90.602262,224.33926 101.4571,230.74376 C 116.74007,239.76093 135.64154,245.76354 149.27554,245.92964 L 155.05109,246 L 149.39081,239.32772 z M 762,250.3051 C 752.78168,249.31789 740.69867,246.54508 733,243.65019 C 716.80135,237.55908 706.11147,228.13574 699.01273,213.68974 C 692.9503,201.35262 690.89087,192.10052 690.28948,174.5 C 688.99648,136.65865 700.65091,111.45825 725.12468,99.17575 C 750.78878,86.29586 792.6388,86.056097 818.87816,98.638625 C 824.62078,101.39238 828.36003,104.16816 834.04402,109.89676 C 847.91812,123.87978 853.75117,139.86511 854.69855,166.5 C 856.20705,208.91026 840.94102,235.45267 809,245.95414 C 796.6495,250.01471 776.61057,251.86978 762,250.3051 z M 788.65243,221.51058 C 799.88597,218.17457 808.17046,209.54777 812.01241,197.18537 C 816.50998,182.71336 816.52483,157.37042 812.04422,142.87399 C 808.29816,130.75407 799.55686,121.8934 788.0685,118.57085 C 781.19219,116.58215 764.39535,116.51928 757.12238,118.45502 C 749.79562,120.40508 741.9606,125.8343 738.1322,131.61412 C 732.4369,140.21246 730.77263,147.48361 730.2466,166.06614 C 729.7153,184.83463 731.06331,194.17066 735.66,203.55833 C 738.83237,210.03716 746.27466,217.34926 752.49865,220.10243 C 761.45599,224.06469 777.89566,224.70499 788.65243,221.51058 z M 422.64975,246.24229 C 421.78022,244.83538 356,95.900485 356,95.338692 C 356,95.032519 362.6375,94.951763 370.75,95.159233 C 383.73231,95.491245 386.07483,95.817305 390.29651,97.87995 C 392.9346,99.168873 396.3096,101.74398 397.79651,103.6024 C 399.28343,105.46082 409.54491,128.18917 420.5998,154.10984 L 440.69961,201.23833 L 459.88905,153.27729 C 480.50918,101.74048 480.82639,101.14141 489.5,97.355347 C 492.57463,96.013259 497.14365,95.514609 509.25,95.199887 C 517.9125,94.974693 525,95.119296 525,95.521227 C 525,96.398435 466.94511,225.05118 462.87882,233.1851 C 457.66995,243.60454 450.55565,247 433.93329,247 C 427.9849,247 422.9073,246.65903 422.64975,246.24229 z M 589.75962,245.95858 C 575.09493,244.23665 563.85187,238.74173 554.23944,228.59851 C 539.42831,212.96953 533.15968,193.20306 534.28088,165.66446 C 534.91501,150.08885 536.65796,142.6618 542.5331,130.5 C 551.18964,112.58061 563.05889,102.37452 581.07996,97.35448 C 586.72551,95.781828 592.14448,95.562097 626,95.533041 L 664.5,95.5 L 664.5,109 L 664.5,122.5 L 632.5,123.06554 C 597.90485,123.67695 594.75989,124.12239 586.98195,129.51251 C 580.46902,134.02597 576.09356,142.56277 574.55925,153.75 L 573.97636,158 L 617.48818,158 L 661,158 L 661,171 L 661,184 L 617.45469,184 L 573.90937,184 L 574.53646,187.75 C 576.75977,201.04542 581.32358,209.23828 588.73275,213.23487 C 597.56323,217.99814 599.89349,218.29706 633,218.91349 L 664.5,219.5 L 664.5,233 L 664.5,246.5 L 630.5,246.62502 C 611.8,246.69378 593.46683,246.39389 589.75962,245.95858 z M 929.19286,245.92754 C 904.75213,242.75444 889.73722,230.8041 884.15599,210.08279 C 882.92918,205.52806 882.58085,194.41786 882.26444,149.75 L 881.8766,95 L 893.22641,95 C 903.01465,95 905.18696,95.309567 909.01523,97.25 C 911.64407,98.582478 914.27915,100.92726 915.47712,103 C 917.4102,106.34463 917.5222,108.63074 918,154.5 C 918.49304,201.83173 918.5312,202.55836 920.74077,206.69207 C 921.97319,208.99771 924.57138,212.09677 926.51452,213.57887 C 932.42027,218.08341 938.91644,218.96713 966.25,218.98438 L 991,219 L 991,233 L 991,247 L 963.25,246.8732 C 947.9875,246.80345 932.66179,246.37791 929.19286,245.92754 z M 1013,176.64788 L 1013,106.29577 L 1015.25,102.98983 C 1019.7904,96.31866 1021.8282,95.534942 1035.5889,95.168028 L 1048.0391,94.836056 L 1047.7695,166.36285 L 1047.5,237.88964 L 1044.1427,241.35312 C 1039.9263,245.70293 1034.9681,247 1022.5572,247 L 1013,247 L 1013,176.64788 z M 1067.2448,244.86236 C 1068.2978,240.08684 1126.9149,106.80029 1129.3881,103.55776 C 1130.7948,101.7136 1134.0954,99.146171 1136.7228,97.852368 C 1141.0863,95.703719 1142.7816,95.5 1156.2989,95.5 L 1171.0978,95.5 L 1203.0724,169 C 1220.6584,209.425 1235.3102,243.5125 1235.6319,244.75 C 1236.2162,246.99746 1236.2022,247 1223.2899,247 C 1200.046,247 1194.9515,243.76755 1186.6066,223.72457 L 1181.7133,211.97151 L 1151.3047,212.23576 L 1120.8961,212.5 L 1115.918,223.88784 C 1109.6985,238.11534 1108.4135,239.90599 1101.8236,243.52814 C 1096.7365,246.32426 1095.8386,246.47137 1081.6119,246.83949 L 1066.7239,247.22472 L 1067.2448,244.86236 z M 1173,183.43655 C 1173,183.12666 1168.1762,171.59522 1162.2804,157.81113 C 1155.0659,140.9438 1151.289,133.19888 1150.7296,134.12457 C 1150.2724,134.88106 1145.2442,146.4125 1139.5558,159.75 L 1129.2132,184 L 1151.1066,184 C 1163.148,184 1173,183.74645 1173,183.43655 z "
       style="fill:#ed1c24;fill-opacity:1" />
    <path
       sodipodi:nodetypes="cssscccccscccccccsscccccccccscccccccccccccccccsscccccscccccccsscccccccsssscccsscccssccccccccscccccccccssscccccsssccccccccccccccccsssssccccccccc"
       id="path2163"
       d="M 408.24584,387.93334 C 396.21106,386.36881 387.63395,379.34855 382.85658,367.15254 C 379.59639,358.82969 379.60485,340.95153 382.87287,332.71769 C 387.47071,321.13335 395.40621,313.99534 405.88649,312.01686 C 408.84906,311.45759 419.08656,311 428.63649,311 L 446,311 L 446,317.5 L 446,324 L 429.96788,324 C 417.80266,324 413.04785,324.37099 410.25448,325.53814 C 403.66653,328.29076 400.80404,332.0842 399.53035,339.75 L 398.8242,344 L 421.4121,344 L 444,344 L 444,350 L 444,356 L 421.5,356 C 404.16369,356 399.00128,356.28687 399.00558,357.25 C 399.01934,360.33487 401.40714,366.77926 403.62579,369.71945 C 407.31781,374.61215 413.40695,376 431.1815,376 L 446,376 L 446,382.5 L 446,389 L 430.25,388.8732 C 421.5875,388.80345 411.68563,388.38052 408.24584,387.93334 z M 465,349.90629 L 465,310.81259 L 474.92168,311.15629 C 483.7353,311.46161 485.1259,311.76566 487.3732,313.87877 C 488.76461,315.18709 497.23735,327.6767 506.20152,341.63346 L 522.5,367.00939 L 523,339.2547 L 523.5,311.5 L 531.76178,311.20937 L 540.02356,310.91873 L 539.76178,349.70937 L 539.5,388.5 L 531.5,388.5 C 518.34155,388.5 519.373,389.47911 499.25169,357.88833 L 481.5,330.01791 L 481.23512,359.50895 L 480.97024,389 L 472.98512,389 L 465,389 L 465,349.90629 z M 582.41043,388.03005 C 563.67455,385.88771 552.92469,370.07618 554.26022,346.62503 C 555.17319,330.59385 561.92923,318.94244 573.22057,313.92618 C 578.08719,311.76415 580.12248,311.55015 599.25,311.18933 L 620,310.79791 L 620,317.39895 L 620,324 L 604.25,324.00558 C 595.5875,324.00864 586.83709,324.47301 584.80464,325.03749 C 578.53386,326.77912 573.27532,334.04806 573.07608,341.25 L 573,344 L 595.5,344 L 618,344 L 618,350 L 618,356 L 595.5,356 C 570.30366,356 571.88635,355.44857 574.10865,363.45308 C 575.51209,368.50809 580.49191,373.48791 585.54692,374.89135 C 587.72112,375.49497 596.3625,375.99136 604.75,375.99442 L 620,376 L 620,382.5 L 620,389 L 604.25,388.86318 C 595.5875,388.78792 585.7597,388.41301 582.41043,388.03005 z M 638,352.61078 C 638,318.28577 638.10833,316.08765 639.90972,313.86078 C 641.78272,311.5454 642.19822,311.49403 661.51648,311.18955 C 684.53749,310.8267 693.62842,311.91377 699.92236,315.78202 C 705.67477,319.31745 709,325.44436 709,332.50806 C 709,342.55414 705.01788,349.41264 696.96198,353.24146 L 691.90054,355.64706 L 696.01366,357.00451 C 700.27185,358.40984 704.46525,362.50533 706.19038,366.94363 C 707.00417,369.03729 709.91721,385.43625 709.98206,388.28893 C 709.99193,388.72285 706.0625,388.94785 701.25,388.78893 L 692.5,388.5 L 691.36029,382.5 C 690.73345,379.2 689.92375,374.80288 689.56097,372.72862 C 688.70334,367.82508 683.81257,362.31997 679.16773,361.02987 C 677.15048,360.46957 670.6625,360.00864 664.75,360.00558 L 654,360 L 654,374.5 L 654,389 L 646,389 L 638,389 L 638,352.61078 z M 685.3826,345.04463 C 689.02058,343.66148 691.16929,339.75519 691.2506,334.37681 C 691.31202,330.31393 690.89092,329.29173 688.14505,326.8383 L 684.96845,324 L 669.48422,324 L 654,324 L 654,335 L 654,346 L 668.4349,346 C 676.3741,346 684.00056,345.57009 685.3826,345.04463 z M 747.80007,387.93011 C 736.115,386.19644 728.0983,379.88037 723.77293,369 C 720.73318,361.35357 720.51643,340.08707 723.40093,332.5 C 727.25488,322.36296 733.58763,316.11842 742.94965,313.22354 C 747.51116,311.81306 752.59766,311.50664 771.5,311.50365 L 794.5,311.5 L 794.5,317.5 L 794.5,323.5 L 773.5,324 C 748.71134,324.59021 747.2652,325.05793 742.75,333.94558 C 740.31133,338.74582 740,340.45619 740,349.05359 C 740,363.76056 742.93592,370.15738 751.5,374.10996 C 754.62608,375.55274 757.9579,375.96087 766.75,375.97804 L 778,376 L 778,366 L 778,356 L 771.15499,356 C 763.13358,356 761.15257,354.55637 760.28358,348.07762 L 759.73666,344 L 777.38746,344 L 795.03826,344 L 794.76913,366.25 L 794.5,388.5 L 774,388.6379 C 762.725,388.71374 750.93503,388.39524 747.80007,387.93011 z M 830,371.74684 L 830,354.40956 L 815.8751,333.96107 C 808.1064,322.71441 801.53326,312.94726 801.26811,312.25629 C 800.90961,311.32207 802.57009,311 807.74513,311 C 817.61577,311 819.6077,312.62983 829.42859,328.74181 C 833.86787,336.0248 837.78772,341.9873 838.13938,341.99181 C 838.49105,341.99631 842.84716,335.72779 847.81964,328.06175 C 858.41017,311.73439 859.68236,310.77321 870.12837,311.20687 L 877.18925,311.5 L 861.61933,333.13343 L 846.04941,354.76687 L 845.77471,371.63343 L 845.5,388.5 L 837.75,388.79206 L 830,389.08413 L 830,371.74684 z "
       style="fill:#666666;fill-opacity:1" />
  </g>
</svg>
